<?xml version="1.0" encoding="utf-8"?>
<!-- Generator: Adobe Illustrator 24.3.0, SVG Export Plug-In . SVG Version: 6.00 Build 0)  -->
<svg version="1.1" id="Livello_1" xmlns="http://www.w3.org/2000/svg" xmlns:xlink="http://www.w3.org/1999/xlink" x="0px" y="0px"
	 viewBox="0 0 700 700" style="enable-background:new 0 0 700 700;" xml:space="preserve">
<style type="text/css">
	.st0{opacity:0.7;}
	.st1{fill-rule:evenodd;clip-rule:evenodd;fill:#5B7CCF;}
</style>
<g class="st0">
	<g>
		<path class="st1" d="M453.37,227.18c9.31,0,23.82,11.1,35.49,27.67c1.85,2.63,5.49,3.26,8.12,1.41c2.63-1.85,3.26-5.49,1.41-8.12
			c-13.64-19.37-30.95-32.62-45.01-32.62c-13.95,0-31.1,13.03-44.69,32.16c-1.86,2.62-1.25,6.26,1.37,8.12
			c2.62,1.86,6.26,1.25,8.12-1.37C429.8,238.08,444.15,227.18,453.37,227.18L453.37,227.18z"/>
		<path class="st1" d="M546.56,431.05v-5.83c0-15.93-8.04-30.49-21.11-39.03c-2.69-1.76-6.3-1-8.06,1.69
			c-1.76,2.69-1.01,6.3,1.69,8.06c9.81,6.41,15.84,17.32,15.84,29.28v5.83c0,20.78,15.61,38.16,36.1,40.49
			c3.2,0.37,6.08-1.93,6.45-5.13c0.36-3.19-1.93-6.08-5.13-6.45C557.71,458.3,546.56,445.89,546.56,431.05L546.56,431.05z
			 M360.18,425.21v5.83c0,14.85-11.13,27.26-25.77,28.92c-3.19,0.36-5.49,3.25-5.13,6.45c0.36,3.19,3.25,5.49,6.45,5.13
			c20.51-2.33,36.1-19.71,36.1-40.5v-5.83c0-11.92,6.03-22.83,15.84-29.26c2.69-1.76,3.44-5.38,1.68-8.07
			c-1.76-2.69-5.38-3.44-8.06-1.68C368.22,394.77,360.18,409.32,360.18,425.21L360.18,425.21z"/>
		<path class="st1" d="M336.88,439.77c0-52.82,51.94-96.1,116.49-96.1s116.49,43.29,116.49,96.1c0,8.26-1.26,16.38-3.74,24.23
			c-0.97,3.07,0.73,6.34,3.8,7.31c3.07,0.97,6.34-0.73,7.31-3.8c2.83-8.97,4.28-18.28,4.28-27.73
			c0-59.77-57.58-107.75-128.14-107.75s-128.14,47.98-128.14,107.75c0,9.46,1.45,18.76,4.28,27.73c0.97,3.07,4.24,4.77,7.31,3.8
			c3.07-0.97,4.77-4.24,3.8-7.31C338.15,456.16,336.88,448.04,336.88,439.77L336.88,439.77z"/>
		<path class="st1" d="M319.41,238.83c0-21.72,6.85-42.57,19.63-60.71c1.85-2.63,1.22-6.26-1.41-8.12s-6.26-1.22-8.12,1.41
			c-14.14,20.08-21.75,43.25-21.75,67.42c0,50.95,34.03,96.29,85.69,116.83c2.99,1.19,6.38-0.27,7.57-3.26
			c1.19-2.99-0.27-6.37-3.26-7.56C350.34,325.98,319.41,284.78,319.41,238.83L319.41,238.83z M587.33,238.83
			c0,45.78-30.72,86.88-77.88,105.81c-2.99,1.2-4.43,4.59-3.23,7.58c1.2,2.98,4.59,4.43,7.58,3.23
			c51.39-20.64,85.19-65.85,85.19-116.62c0-24.17-7.62-47.35-21.75-67.42c-1.85-2.63-5.49-3.26-8.12-1.41
			c-2.63,1.85-3.26,5.48-1.41,8.12C580.48,196.26,587.33,217.11,587.33,238.83L587.33,238.83z"/>
		<path class="st1" d="M342.65,180.59c35.43,0,64.12,28.67,64.12,64.05v52.48c0,25.72,20.86,46.56,46.6,46.56
			c25.7,0,46.6-20.86,46.6-46.56v-52.48c0-35.39,28.7-64.05,64.12-64.05h8.38c3.22,0,5.82-2.61,5.82-5.82
			c0-3.22-2.61-5.82-5.82-5.82h-8.38c-41.86,0-75.77,33.87-75.77,75.7v52.48c0,19.26-15.67,34.91-34.95,34.91
			c-19.3,0-34.95-15.63-34.95-34.91v-52.48c0-41.81-33.91-75.7-75.77-75.7h-8.38c-3.22,0-5.82,2.61-5.82,5.82
			c0,3.22,2.61,5.82,5.82,5.82L342.65,180.59z"/>
		<path class="st1" d="M529.09,401.92c0-38.72-34.01-69.89-75.72-69.89s-75.72,31.17-75.72,69.89c0,66.78,35.3,139.79,75.72,139.79
			S529.09,468.7,529.09,401.92z M389.3,401.92c0-32.05,28.58-58.24,64.07-58.24s64.07,26.2,64.07,58.24
			c0,61.15-32.39,128.14-64.07,128.14S389.3,463.07,389.3,401.92z"/>
		<path class="st1" d="M471.49,436.45c3.19-20.77,5.18-46.64,5.18-66.9c0-24.54-8.32-37.52-23.3-37.52s-23.3,12.98-23.3,37.52
			c0,20.26,2,46.13,5.18,66.9c4.19,27.33,8.66,41.19,18.11,41.19S467.29,463.77,471.49,436.45L471.49,436.45z M452.11,459.63
			c-1.91-5.92-3.74-14.53-5.34-24.95c-3.1-20.19-5.05-45.47-5.05-65.14c0-18.9,4.47-25.87,11.65-25.87
			c7.18,0,11.65,6.97,11.65,25.87c0,19.67-1.95,44.94-5.05,65.14c-1.6,10.42-3.43,19.02-5.34,24.95c-0.43,1.33-1.27,3.51-1.27,3.51
			S453.04,462.51,452.11,459.63L452.11,459.63z"/>
	</g>
	<g>
		<path class="st1" d="M211.62,355.32c0-47.01-15.02-85.39-35.58-85.39s-35.58,38.38-35.58,85.39s15.02,85.39,35.58,85.39
			S211.62,402.33,211.62,355.32z M147.58,355.32c0-43.38,13.66-78.27,28.46-78.27c14.81,0,28.46,34.9,28.46,78.27
			s-13.66,78.27-28.46,78.27C161.24,433.59,147.58,398.7,147.58,355.32z"/>
		<path class="st1" d="M207.66,316.24c0.18-1.96-1.26-3.69-3.22-3.87c-1.96-0.18-3.69,1.26-3.87,3.22
			c-1.64,17.91-8.56,34.23-19.26,46.11c-1.32,1.46-1.2,3.71,0.26,5.03c1.46,1.32,3.71,1.2,5.03-0.26
			C198.35,353.43,205.88,335.65,207.66,316.24L207.66,316.24z"/>
		<path class="st1" d="M202.73,373.11c1.78,0,3.55-0.11,5.3-0.32c1.95-0.24,3.34-2.01,3.1-3.96c-0.24-1.95-2.01-3.34-3.96-3.1
			c-1.47,0.18-2.95,0.27-4.45,0.27c-23.65,0-44.46-23.03-50.11-55.57c-0.34-1.94-2.18-3.23-4.11-2.9c-1.94,0.34-3.23,2.18-2.9,4.12
			C151.79,347.27,175.14,373.11,202.73,373.11L202.73,373.11z"/>
	</g>
</g>
</svg>
